<svg xmlns="http://www.w3.org/2000/svg"  viewBox="0 0 48 48" width="64px" height="64px"><circle cx="24" cy="24" r="20" fill="#3dd9eb"/><path fill="#00b3d7" d="M35.997,7.997L32,11.896V16.5L26,23v6h6.462l3.237,11.223C40.727,36.59,44,30.677,44,24 C44,17.456,40.857,11.646,35.997,7.997z"/><path fill="#00b3d7" d="M18.68,31l-1.937-3H13l-4.5-5h4.425L19,17v-5h-3.933l-3.592-3.592 C6.931,12.062,4.019,17.661,4,23.94l6,6.036l1.615,9.727c2.224,1.757,4.831,3.051,7.675,3.738L21.607,38L24,36.752L24.013,31 L18.68,31z"/></svg>