<svg xmlns="http://www.w3.org/2000/svg"  viewBox="0 0 48 48" width="48px" height="48px"><path fill="#00b8d4" d="M20,17.98v16c0,0.55-0.45,1-1,1H8c-0.09,0-0.17-0.01-0.25-0.04C7.32,34.84,7,34.44,7,33.98v-16 c0-0.55,0.45-1,1-1h11C19.55,16.98,20,17.43,20,17.98z"/><path fill="#00b8d4" d="M15.941,14.551c-0.201-1.007-0.956-1.812-1.912-2.013c-1.661-0.352-3.07,0.906-3.07,2.466 c0,0.503,0.151,0.906,0.352,1.309c0.178,0.267,0.03,0.598-0.283,0.674h4.857c-0.278-0.076-0.424-0.406-0.246-0.674 C15.941,15.809,16.092,15.205,15.941,14.551z"/><path fill="#00b8d4" d="M15.941,37.413c-0.201,1.007-0.956,1.812-1.912,2.013c-1.661,0.352-3.07-0.906-3.07-2.466 c0-0.503,0.151-0.906,0.352-1.309c0.178-0.267,0.03-0.598-0.283-0.674h4.857c-0.278,0.076-0.424,0.406-0.246,0.674 C15.941,36.155,16.092,36.759,15.941,37.413z"/><path fill="#00b8d4" d="M22.435,28.919c1.007-0.201,1.812-0.956,2.013-1.912c0.352-1.661-0.906-3.07-2.466-3.07 c-0.503,0-0.906,0.151-1.309,0.352c-0.267,0.178-0.598,0.03-0.674-0.283v4.857c0.076-0.278,0.406-0.424,0.674-0.246 C21.177,28.919,21.781,29.07,22.435,28.919z"/><path fill="#1976d2" d="M27,16.978c-0.552,0-1,0.448-1,1v6.028c0.076,0.313,0.406,0.461,0.674,0.283 c0.403-0.201,0.805-0.352,1.309-0.352c1.56,0,2.818,1.409,2.466,3.07c-0.201,0.956-1.007,1.711-2.013,1.912 c-0.654,0.151-1.258,0-1.761-0.302c-0.267-0.178-0.598-0.032-0.674,0.246v5.115c0,0.552,0.448,1,1,1h13c0.552,0,1-0.448,1-1v-16 c0-0.552-0.448-1-1-1H27z"/><path fill="#1976d2" d="M35.983,14.551c-0.201-1.007-0.956-1.812-1.912-2.013C32.409,12.186,31,13.444,31,15.004 c0,0.503,0.151,0.906,0.352,1.309c0.178,0.267,0.03,0.598-0.283,0.674h4.857c-0.278-0.076-0.424-0.406-0.246-0.674 C35.983,15.809,36.134,15.205,35.983,14.551z"/><path fill="#1976d2" d="M35.983,37.413c-0.201,1.007-0.956,1.812-1.912,2.013C32.409,39.779,31,38.521,31,36.96 c0-0.503,0.151-0.906,0.352-1.309c0.178-0.267,0.03-0.598-0.283-0.674h4.857c-0.278,0.076-0.424,0.406-0.246,0.674 C35.983,36.155,36.134,36.759,35.983,37.413z"/><path fill="#0d47a1" d="M37.608,33.18c0.68,0.85,1.6,1.47,2.64,1.76c0.43-0.1,0.75-0.5,0.75-0.96v-6.99l-1,1h-1.25	l-3.07-2.34c-0.65-0.52-2.428,0.1-2.428,0.1L37.608,33.18z"/><path fill="#ffb74d" d="M33.353,25.918l4.259,5.243c0.747,0.944,1.798,1.6,2.974,1.857L48,34.978v-6.436l-1.615-0.629	l-3.691-5.697c-0.239-0.368-0.6-0.639-1.02-0.764L41,21.228v3.75l-1,1h-1.25l-3.073-2.345c-0.642-0.524-1.574-0.487-2.172,0.087	C32.895,24.304,32.829,25.256,33.353,25.918z"/><path fill="#00838f" d="M10.39,33.18c-0.68,0.85-1.6,1.47-2.64,1.76C7.32,34.84,7,34.44,7,33.98v-6.99l1,1h1.25l3.07-2.34	c0.65-0.52,2.43,0.1,2.43,0.1L10.39,33.18z"/><path fill="#ffe0b2" d="M33.95,24.214c-0.736,0.746,0.212,1.706,0.212,1.706s0.736-0.217,1.04-0.52	c0.303-0.303,0.476-0.952,0.476-0.952S34.713,23.439,33.95,24.214z"/><path fill="#ffb74d" d="M14.495,23.72c-0.598-0.573-1.529-0.611-2.172-0.087L9.25,25.978H8l-1-1v-3.75l-0.675,0.224	c-0.42,0.126-0.781,0.397-1.02,0.764l-3.691,5.697L0,28.542v6.436l7.414-1.96c1.176-0.257,2.227-0.913,2.974-1.857l4.259-5.243	C15.171,25.256,15.105,24.304,14.495,23.72z"/><path fill="#ffe0b2" d="M12.322,24.448c0,0,0.173,0.649,0.476,0.952c0.303,0.303,1.04,0.52,1.04,0.52s0.948-0.96,0.212-1.706	C13.287,23.439,12.322,24.448,12.322,24.448z"/></svg>