<?xml version="1.0" encoding="utf-8"?>
<!-- Generator: Adobe Illustrator 26.0.3, SVG Export Plug-In . SVG Version: 6.00 Build 0)  -->
<svg version="1.0" id="Layer_1" xmlns="http://www.w3.org/2000/svg" xmlns:xlink="http://www.w3.org/1999/xlink" x="0px" y="0px"
	 viewBox="0 0 1010.2 750" style="enable-background:new 0 0 1010.2 750;" xml:space="preserve">
<style type="text/css">
	.st0{fill:#EA1D2D;}
	.st1{fill:#1A3668;}
	.st2{fill:#00558A;}
	.st3{fill:#40AE49;}
	.st4{fill:#007DBB;}
	.st5{fill:#48773C;}
	.st6{fill:#CD8B2A;}
	.st7{fill:#F99D25;}
	.st8{fill:#E01A83;}
	.st9{fill:#F36E24;}
	.st10{fill:#8F1838;}
	.st11{fill:#FDB714;}
	.st12{fill:#00ADD8;}
	.st13{fill:#EF412A;}
	.st14{fill:#C22033;}
	.st15{fill:#2D9A47;}
	.st16{fill:#D19F2A;}
</style>
<g>
	<g>
		<path class="st0" d="M341.4,175.1v86.6c9.6,0.6,18.9,2.4,27.7,5.3l31.1-80.8C381.6,179.7,361.9,175.9,341.4,175.1z"/>
		
			<ellipse transform="matrix(4.687046e-03 -1 1 4.687046e-03 223.9186 527.4139)" class="st0" cx="376.9" cy="151.2" rx="15.4" ry="15.4"/>
	</g>
	<g>
		<path class="st1" d="M269.3,185.9l31.3,80.7c9-2.8,18.4-4.6,28.2-5v-86.6C308.1,175.6,288.1,179.4,269.3,185.9z"/>
		
			<ellipse transform="matrix(7.085146e-02 -0.9975 0.9975 7.085146e-02 120.6948 431.8897)" class="st1" cx="292.2" cy="151.2" rx="15.4" ry="15.4"/>
	</g>
	<g>
		<path class="st2" d="M257.6,190.4c-18.6,7.8-35.8,18.4-51,31.2l58.3,64c7.3-5.8,15.4-10.7,24-14.5L257.6,190.4z"/>
		
			<ellipse transform="matrix(0.667 -0.745 0.745 0.667 -63.3043 220.9807)" class="st2" cx="215.6" cy="181.3" rx="15.4" ry="15.4"/>
	</g>
	<g>
		<path class="st3" d="M197.3,230c-14.7,14-27.2,30.3-37,48.2l77.5,38.6c4.9-8.4,10.9-16.1,17.8-22.9L197.3,230z"/>
		
			<ellipse transform="matrix(4.444754e-02 -0.999 0.999 4.444754e-02 -90.0452 380.8196)" class="st3" cx="154" cy="237.5" rx="15.4" ry="15.4"/>
	</g>
	<g>
		<path class="st4" d="M137.5,347.9l86.3,7.7c1.5-9.7,4.4-19,8.3-27.8l-77.4-38.6C146.1,307.5,140.2,327.2,137.5,347.9z"/>
		
			<ellipse transform="matrix(0.2045 -0.9789 0.9789 0.2045 -210.2888 362.4216)" class="st4" cx="117.8" cy="310.6" rx="15.4" ry="15.4"/>
	</g>
	<g>
		<path class="st5" d="M222.5,368.1l-86.2-7.7c-0.3,4.3-0.4,8.6-0.4,12.9c0,16.5,2.1,32.6,5.9,47.9l83.2-23.9
			c-1.7-7.8-2.6-15.8-2.6-24.1C222.4,371.6,222.5,369.8,222.5,368.1z"/>
		
			<ellipse transform="matrix(9.268395e-02 -0.9957 0.9957 9.268395e-02 -292.8185 466.5262)" class="st5" cx="109.6" cy="393.9" rx="15.4" ry="15.4"/>
	</g>
	<g>
		<path class="st6" d="M145.2,433.3c6.3,19.8,15.6,38.3,27.5,54.9l68.9-52.4c-5.5-8.1-10-17-13.2-26.4L145.2,433.3z"/>
		
			<ellipse transform="matrix(0.4002 -0.9164 0.9164 0.4002 -354.8281 405.3994)" class="st6" cx="132.3" cy="473.8" rx="15.4" ry="15.4"/>
	</g>
	<g>
		<path class="st7" d="M249.2,445.8l-68.9,52.4c12.8,15.8,28,29.5,45,40.8l45.5-73.6C262.8,459.8,255.5,453.2,249.2,445.8z"/>
		
			<ellipse transform="matrix(0.1436 -0.9896 0.9896 0.1436 -378.3947 643.4282)" class="st7" cx="182.6" cy="540.4" rx="15.4" ry="15.4"/>
	</g>
	<g>
		<path class="st8" d="M235.9,545.5c17.5,10,36.7,17.4,57,21.8l16-85c-9.7-2.3-18.9-5.8-27.4-10.4L235.9,545.5z"/>
		
			<ellipse transform="matrix(0.9996 -2.828715e-02 2.828715e-02 0.9996 -16.4177 7.3859)" class="st8" cx="252.8" cy="584" rx="15.4" ry="15.4"/>
	</g>
	<g>
		<path class="st9" d="M366.4,569l-16-85c-5.3,0.8-10.6,1.2-16.1,1.2c-4.4,0-8.7-0.3-13-0.8l-16,85.1c9.5,1.4,19.2,2.1,29,2.1
			C345.2,571.6,355.9,570.7,366.4,569z"/>
		
			<ellipse transform="matrix(0.891 -0.454 0.454 0.891 -235.5535 217.4775)" class="st9" cx="335.1" cy="599.3" rx="15.4" ry="15.4"/>
	</g>
	<g>
		<path class="st10" d="M389.1,470.7c-8.3,4.7-17.1,8.3-26.5,10.8l16,85.1c20-4.6,38.8-12.2,55.9-22.3L389.1,470.7z"/>
		
			<ellipse transform="matrix(0.9993 -3.839847e-02 3.839847e-02 0.9993 -22.0726 16.5219)" class="st10" cx="419.1" cy="582.9" rx="15.4" ry="15.4"/>
	</g>
	<g>
		<path class="st11" d="M489.6,496.1l-69-52c-6.1,7.4-13.2,14.1-21,19.7l45.4,73.6C461.9,526,476.9,512,489.6,496.1z"/>
		
			<ellipse transform="matrix(0.9947 -0.1024 0.1024 0.9947 -52.5767 52.8048)" class="st11" cx="488.2" cy="538.7" rx="15.4" ry="15.4"/>
	</g>
	<g>
		<path class="st12" d="M440.2,409.1c-3,8.9-7.1,17.2-12.1,24.9l69.1,52.1c11.2-16.1,20.1-34,26.2-53.1L440.2,409.1z"/>
		
			<ellipse transform="matrix(1 -2.903678e-03 2.903678e-03 1 -1.3743 1.5597)" class="st12" cx="536.5" cy="474.1" rx="15.4" ry="15.4"/>
	</g>
	<g>
		<path class="st13" d="M446,369.3c0,1.3,0.1,2.7,0.1,4c0,8.2-0.9,16.1-2.6,23.8l83.2,23.9c3.8-15.3,5.8-31.3,5.8-47.7
			c0-4.1-0.1-8.1-0.4-12.2L446,369.3z"/>
		<path class="st13" d="M563.5,379.7c-8.2-2.4-16.8,2.2-19.2,10.4c-2.4,8.2,2.2,16.8,10.4,19.2s16.8-2.2,19.2-10.4
			C576.3,390.7,571.6,382.1,563.5,379.7z"/>
	</g>
	<g>
		<path class="st14" d="M437.1,329.4c3.7,8.6,6.3,17.8,7.8,27.4l86.2-8.1c-2.5-20.4-8.2-39.9-16.5-57.9L437.1,329.4z"/>
		
			<ellipse transform="matrix(0.9556 -0.2948 0.2948 0.9556 -67.1909 176.4402)" class="st14" cx="551.6" cy="311.1" rx="15.4" ry="15.4"/>
	</g>
	<g>
		<path class="st15" d="M472.8,231.6l-58.4,63.8c6.7,6.8,12.4,14.5,17.2,22.9l77.5-38.6C499.4,261.8,487.1,245.6,472.8,231.6z"/>
		
			<ellipse transform="matrix(0.9745 -0.2244 0.2244 0.9745 -40.3201 121.8316)" class="st15" cx="515.9" cy="238.3" rx="15.4" ry="15.4"/>
	</g>
	<g>
		<path class="st16" d="M380.7,271.6c8.8,4,17,9.2,24.4,15.3l58.4-63.8c-15.4-13.3-32.9-24.2-51.8-32.3L380.7,271.6z"/>
		
			<ellipse transform="matrix(0.599 -0.8007 0.8007 0.599 36.737 435.9476)" class="st16" cx="453.6" cy="181.3" rx="15.4" ry="15.4"/>
	</g>
</g>
<g>
	<g>
		<path d="M624.6,215.5h15.9v81.6h19v13h-34.9V215.5z"/>
		<path d="M665.4,215.5h37.9v13h-22v27H697v12.8h-15.8v28.7h22v13h-37.9V215.5z"/>
		<path d="M707.2,310.1l17.8-94.5h18.1l18,94.5h-16.3l-2.9-17.3H725l-2.8,17.3H707.2z M727.1,280.1h12.7l-6.3-37.9h-0.1L727.1,280.1
			z"/>
		<path d="M810.2,215.5l-18,94.5h-17.3l-18-94.5h16.2l10.9,66h0.1l11.2-66H810.2z"/>
		<path d="M815.4,215.5h37.9v13h-22v27H847v12.8h-15.8v28.7h22v13h-37.9V215.5z"/>
		<path d="M638,366.1v59.4h-13.4v-94.5h15.6l17.2,54.2v-54.2h13.2v94.5h-13.9L638,366.1z"/>
		<path d="M679.7,401.1v-45.7c0-14.8,7.3-25.5,24-25.5c16.9,0,24.1,10.7,24.1,25.5v45.7c0,14.6-7.2,25.5-24.1,25.5
			C687,426.6,679.7,415.7,679.7,401.1z M711.9,403.6v-50.8c0-5.7-2.5-9.8-8.2-9.8c-5.6,0-8.1,4-8.1,9.8v50.8c0,5.7,2.5,9.8,8.1,9.8
			C709.4,413.3,711.9,409.3,711.9,403.6z"/>
		<path d="M751.5,401.1v-45.7c0-14.8,7.2-25.5,24-25.5c16.9,0,24.1,10.7,24.1,25.5v45.7c0,14.6-7.3,25.5-24.1,25.5
			C758.8,426.6,751.5,415.7,751.5,401.1z M783.7,403.6v-50.8c0-5.7-2.5-9.8-8.2-9.8c-5.6,0-8.1,4-8.1,9.8v50.8
			c0,5.7,2.5,9.8,8.1,9.8C781.2,413.3,783.7,409.3,783.7,403.6z"/>
		<path d="M822.1,366.1v59.4h-13.4v-94.5h15.6l17.2,54.2v-54.2h13.2v94.5h-13.9L822.1,366.1z"/>
		<path d="M865.9,330.9h37.9v13h-22v27h15.8v12.8h-15.8v28.7h22v13h-37.9V330.9z"/>
		<path d="M624.6,446.3h23c15.9,0,21.2,7.4,21.2,20.8v9.6c0,7.9-2.9,13-9.5,15.1c7.9,1.8,11.9,7.1,11.9,15.8V520
			c0,13.4-6,20.8-21.9,20.8h-24.7V446.3z M640.5,486.2h5.6c5.2,0,7.5-2.6,7.5-7.7v-11.6c0-5.2-2.4-7.7-7.7-7.7h-5.4V486.2z
			 M640.5,498.3v29.6h7c5.3,0,7.8-2.6,7.8-7.7V506c0-5-2.4-7.7-7.9-7.7H640.5z"/>
		<path d="M679.2,446.3h37.9v13h-22v27h15.8v12.8h-15.8v28.7h22v13h-37.9V446.3z"/>
		<path d="M756.8,499.1h-15.3v41.7h-15.9v-94.5h15.9v40h15.3v-40h16v94.5h-16V499.1z"/>
		<path d="M784,446.3h15.9v94.5H784V446.3z"/>
		<path d="M824.6,481.4v59.4h-13.4v-94.5h15.6l17.2,54.2v-54.2h13.2v94.5h-13.9L824.6,481.4z"/>
		<path d="M915.9,471.7v43.8c0,14.5-6,25.4-23,25.4h-24.5v-94.5h24.5C909.9,446.3,915.9,457,915.9,471.7z M891,527.8
			c6.6,0,9.1-3.9,9.1-9.6v-49.5c0-5.6-2.5-9.5-9.1-9.5h-6.7v68.6H891z"/>
	</g>
</g>
</svg>
